<svg xmlns="http://www.w3.org/2000/svg" viewBox="0 0 438 52"><path fill-rule="evenodd" fill="#344072" d="M0 10.08V.72h39.888v9.36H26.064v41.184H13.752V10.08H0zM75.056.72h12.312v50.544H75.056V30.312H55.544v20.952H43.232V.72h12.312v20.232h19.512V.72zm49.712-.144v9.36H106.48v10.872h16.128v9.36H106.48v11.736h18.288v9.36h-30.6V.576h30.6zm56.008.144h12.312v50.544h-12.312V30.312h-19.512v20.952h-12.312V.72h12.312v20.232h19.512V.72zm55.4 25.128c0-4.416-1.212-7.944-3.636-10.584-2.424-2.64-5.664-3.96-9.72-3.96-4.056 0-7.296 1.32-9.72 3.96-2.424 2.64-3.636 6.168-3.636 10.584 0 4.416 1.212 7.944 3.636 10.584 2.424 2.64 5.664 3.96 9.72 3.96 4.056 0 7.296-1.32 9.72-3.96 2.424-2.64 3.636-6.168 3.636-10.584zm-39.24 0c0-7.488 2.508-13.668 7.524-18.54S215.62 0 222.892 0c7.272 0 13.392 2.436 18.36 7.308s7.452 11.052 7.452 18.54c0 7.488-2.496 13.68-7.488 18.576-4.992 4.896-11.112 7.344-18.36 7.344-7.248 0-13.38-2.448-18.396-7.344-5.016-4.896-7.524-11.088-7.524-18.576zm52.232-15.768V.72h39.888v9.36h-13.824v41.184H262.92V10.08h-13.752zm66.16 41.184V11.592h-8.712V.144h21.456v51.12h-12.744zM372.6 25.848c0-4.416-1.212-7.944-3.636-10.584-2.424-2.64-5.664-3.96-9.72-3.96-4.056 0-7.296 1.32-9.72 3.96-2.424 2.64-3.636 6.168-3.636 10.584 0 4.416 1.212 7.944 3.636 10.584 2.424 2.64 5.664 3.96 9.72 3.96 4.056 0 7.296-1.32 9.72-3.96 2.424-2.64 3.636-6.168 3.636-10.584zm-39.24 0c0-7.488 2.508-13.668 7.524-18.54S352.044 0 359.316 0c7.272 0 13.392 2.436 18.36 7.308s7.452 11.052 7.452 18.54c0 7.488-2.496 13.68-7.488 18.576-4.992 4.896-11.112 7.344-18.36 7.344-7.248 0-13.38-2.448-18.396-7.344-5.016-4.896-7.524-11.088-7.524-18.576zm91.976 0c0-4.416-1.212-7.944-3.636-10.584-2.424-2.64-5.664-3.96-9.72-3.96-4.056 0-7.296 1.32-9.72 3.96-2.424 2.64-3.636 6.168-3.636 10.584 0 4.416 1.212 7.944 3.636 10.584 2.424 2.64 5.664 3.96 9.72 3.96 4.056 0 7.296-1.32 9.72-3.96 2.424-2.64 3.636-6.168 3.636-10.584zm-39.24 0c0-7.488 2.508-13.668 7.524-18.54S404.78 0 412.052 0c7.272 0 13.392 2.436 18.36 7.308s7.452 11.052 7.452 18.54c0 7.488-2.496 13.68-7.488 18.576-4.992 4.896-11.112 7.344-18.36 7.344-7.248 0-13.38-2.448-18.396-7.344-5.016-4.896-7.524-11.088-7.524-18.576z"/></svg>
